<svg width="440" height="122" viewBox="0 0 440 122" fill="none" xmlns="http://www.w3.org/2000/svg">
<path d="M57.3084 27.5367C61.4383 24.7886 66.9758 27.6402 67.1513 32.6054L69.7024 104.796C69.7964 107.455 66.2668 108.453 64.9603 106.136L33.5413 50.4331C31.9048 47.5317 32.7831 43.8561 35.5536 42.0125L57.3084 27.5367Z" fill="#FF9500"/>
<path d="M8.54694 11.9331C8.58794 12.3341 8.43673 12.7307 8.1394 13.0021L1.66644 18.9113C0.940862 19.5736 1.20893 20.7756 2.14686 21.0652L37.0154 31.8353C38.3074 32.2343 39.2423 30.6006 38.2462 29.6845L24.9278 17.4333L9.92622 3.63368C9.06698 2.8433 7.68851 3.53668 7.80739 4.69948L8.54694 11.9331Z" fill="#1F4C2A"/>
<path d="M42.7572 18.6224C43.1853 18.0641 43.0789 17.2633 42.5199 16.8368L22.2154 1.3462C21.0433 0.45186 19.5482 1.94284 20.4348 3.12212L29.2215 14.8104L39.3508 28.2847C40.1994 29.4134 41.9768 28.5193 41.5805 27.1629L40.2795 22.7092C40.1658 22.3198 40.2444 21.8994 40.491 21.5777L42.7572 18.6224Z" fill="#63856B"/>
<path d="M122.821 79.1132C122.667 79.5658 122.479 79.9949 122.256 80.4007C122.091 80.795 121.903 81.2242 121.691 81.688C121.397 82.3491 121.044 83.0215 120.634 83.7051C120.27 84.3193 119.843 84.9156 119.351 85.494C117.704 87.263 115.923 88.1822 114.007 88.2515C112.092 88.3208 110.394 87.9551 108.914 87.1549C107.087 86.1197 105.65 84.7672 104.605 83.0974C102.27 79.7444 100.587 76.1746 99.5548 72.3879C98.5807 68.59 98.1587 64.6852 98.2885 60.6733C98.2887 58.8007 98.8033 57.2513 99.8323 56.0249C100.265 55.4578 100.755 55.0305 101.303 54.7432C101.839 54.3976 102.46 54.3376 103.166 54.5631C103.851 54.6721 104.394 54.9896 104.797 55.5156C105.188 55.9834 105.446 56.5375 105.57 57.178C105.671 57.7019 105.772 58.226 105.873 58.75C105.974 59.2741 106.041 59.7747 106.072 60.2517C106.188 62.1018 106.426 63.9584 106.786 65.8217C107.134 67.6268 107.604 69.4383 108.196 71.2565C108.56 72.515 108.981 73.7622 109.461 74.9981C109.987 76.1646 110.653 77.2738 111.459 78.3256C111.62 78.536 111.77 78.6882 111.909 78.7821C112.381 79.355 112.773 79.6716 113.086 79.7317C113.399 79.7918 113.842 79.5853 114.413 79.112C115.592 78.0379 116.436 76.787 116.944 75.3596C117.602 74.0845 118.039 72.7613 118.257 71.3902C118.475 70.0192 118.605 68.665 118.648 67.3277C118.767 65.1302 118.705 62.9374 118.464 60.7491C118.222 58.561 117.864 56.3954 117.391 54.2523C117.042 52.4473 117.47 50.9147 118.673 49.6545C119.678 48.6141 120.922 48.1916 122.406 48.3872C123.949 48.5715 125.097 49.5267 125.853 51.2528C126.265 52.1395 126.567 53.0777 126.757 54.0675C126.995 54.9879 127.151 55.9543 127.226 56.9666C127.752 60.0057 128.278 63.0448 128.805 66.0837C129.319 69.0646 129.957 72.0519 130.716 75.046C131.112 76.4791 131.433 77.9873 131.679 79.5707C131.924 81.1541 132.164 82.7084 132.398 84.2335C132.47 85.5483 131.977 86.5803 130.916 87.3296C130.38 87.675 129.799 87.7878 129.174 87.6674C128.547 87.5472 127.985 87.2935 127.49 86.9066C127.062 86.5665 126.698 86.2443 126.399 85.9401C126.146 85.5662 125.922 85.1867 125.727 84.8018C125.187 83.8794 124.677 82.9516 124.195 82.0181C123.772 81.0732 123.314 80.1049 122.821 79.1132Z" fill="#1F4C2A"/>
<path d="M175.966 59.3314C174.83 60.1939 173.986 61.109 173.436 62.077C172.026 64.1672 170.843 66.3941 169.886 68.7578C168.928 71.1214 168.145 73.5582 167.532 76.068C167.427 76.6546 167.262 77.2365 167.039 77.8139C166.816 78.3912 166.538 78.9048 166.206 79.3545C165.205 80.763 163.975 81.3205 162.513 81.0271C161.748 80.9667 161.115 80.7087 160.616 80.2531C160.117 79.7974 159.687 79.2282 159.326 78.5454C159.13 77.9946 158.998 77.419 158.926 76.8186C158.914 76.2227 158.872 75.6245 158.799 75.0239C158.69 72.6357 158.551 70.2453 158.382 67.8525C158.277 65.4052 158.258 62.9944 158.325 60.6203C158.333 59.0146 158.457 57.4183 158.701 55.8313C158.944 54.2442 159.246 52.6618 159.607 51.0841C159.63 50.7883 159.71 50.5269 159.847 50.2997C159.988 50.0134 160.097 49.7544 160.174 49.5225C160.821 48.0862 161.845 47.5124 163.248 47.8013C163.832 47.9067 164.343 48.2145 164.778 48.7248C165.213 49.2349 165.434 49.8174 165.443 50.4724C165.507 51.9053 165.547 53.3062 165.558 54.6754C165.628 56.0492 165.728 57.4253 165.857 58.8037C165.898 59.0448 165.904 59.3428 165.876 59.6975C165.853 59.9931 165.919 60.2957 166.073 60.6053C166.377 60.5102 166.566 60.3764 166.638 60.2036C166.716 59.9718 166.79 59.7695 166.864 59.5967C167.546 58.4607 168.227 57.3542 168.904 56.2773C169.588 55.1412 170.348 54.1304 171.19 53.2447C171.581 52.7996 171.97 52.384 172.356 51.9981C172.748 51.5529 173.193 51.1715 173.692 50.8539C175.323 49.733 177.012 49.39 178.759 49.8249C180.51 50.2007 181.878 51.2899 182.865 53.0927C183.323 54.0804 183.656 55.1181 183.868 56.2055C184.085 57.2339 184.209 58.2847 184.245 59.3582C184.401 61.1552 184.494 62.977 184.529 64.8238C184.625 66.6161 184.723 68.4083 184.819 70.2006C184.855 71.274 184.918 72.3499 185.012 73.4281C185.169 74.4518 185.265 75.5003 185.3 76.5738C185.385 76.997 185.505 77.3634 185.658 77.6729C185.812 77.9824 186.084 78.3013 186.474 78.6294C187.662 79.3773 187.964 80.4421 187.382 81.8239C186.735 83.2602 185.748 84.1046 184.422 84.3573C183.097 84.6099 181.881 84.2167 180.775 83.1779C180.282 82.6633 179.879 82.1258 179.567 81.5659C179.254 81.0058 178.973 80.4187 178.725 79.8043C177.916 78.0154 177.344 76.2156 177.011 74.4047C176.678 72.5938 176.47 70.7036 176.387 68.7339C176.317 67.3601 176.278 65.9592 176.271 64.5309C176.264 63.1027 176.166 61.6971 175.978 60.314C175.987 60.1957 175.967 60.0751 175.918 59.9522C175.932 59.7749 175.948 59.5679 175.966 59.3314Z" fill="#1F4C2A"/>
<path d="M221.468 43.9637C220.548 43.7422 219.811 43.2601 219.258 42.5173C218.778 41.7306 218.648 40.876 218.869 39.9532C219.062 39.146 219.48 38.545 220.122 38.1507C220.779 37.6986 221.538 37.5764 222.4 37.784C223.321 38.0055 224.022 38.5097 224.503 39.2963C225.056 40.0391 225.222 40.8719 225 41.7945C224.821 42.5442 224.375 43.1382 223.661 43.5764C223.018 43.9707 222.287 44.0998 221.468 43.9637ZM224.451 52.0917C224.816 54.3754 224.935 57.1791 224.808 60.5031C224.695 63.7694 224.413 67.2388 223.959 70.911C223.519 74.5256 222.991 77.9971 222.376 81.3257C221.775 84.5966 221.212 87.3277 220.687 89.519C219.493 93.7448 217.636 97.8115 215.118 101.719C213.958 103.513 212.564 104.886 210.938 105.836C209.295 106.844 207.391 107.301 205.223 107.206C203.414 107.136 201.795 106.655 200.366 105.763C198.661 104.498 197.783 102.824 197.735 100.738C197.684 99.9333 197.72 99.0266 197.839 98.0186C197.929 96.8815 198.469 96.2795 199.458 96.2126C200.547 95.9867 201.312 96.4757 201.755 97.6798C201.814 97.9382 201.881 98.1678 201.955 98.3685C202.028 98.5691 202.059 98.8205 202.047 99.1227C202.079 99.4965 202.183 99.8262 202.358 100.112C202.576 100.47 202.887 100.697 203.29 100.794C204.211 101.016 205.004 100.749 205.673 99.995C208.77 96.7151 210.965 92.7604 212.258 88.1309C212.439 87.6257 212.563 87.1067 212.63 86.5739C212.755 86.0549 212.885 85.507 213.023 84.9304C213.203 84.1808 213.485 82.8762 213.87 81.0171C214.255 79.1579 214.645 77.1476 215.041 74.9863C215.509 72.7811 215.87 70.7639 216.125 68.9347C216.452 67.0616 216.649 65.7364 216.712 64.959C216.759 63.7503 216.82 62.6062 216.896 61.5268C216.986 60.3895 217.04 59.2742 217.058 58.1808C217.038 57.505 217.01 56.858 216.976 56.2397C217.013 55.5777 216.949 54.9526 216.786 54.3643C216.694 53.7322 216.673 53.0564 216.723 52.3367C216.886 51.1557 217.265 50.3322 217.863 49.8664C218.533 49.3566 219.464 49.0314 220.653 48.8907C221.47 48.7825 222.255 49.0628 223.008 49.7318C223.76 50.4007 224.241 51.1874 224.451 52.0917Z" fill="#63856B"/>
<path d="M267.377 94.8159C267.018 95.1315 266.641 95.4096 266.247 95.6499C265.907 95.9095 265.531 96.1876 265.116 96.4841C264.533 96.9103 263.892 97.3174 263.197 97.7051C262.576 98.056 261.909 98.3597 261.196 98.616C258.889 99.3272 256.887 99.2348 255.191 98.3385C253.497 97.4422 252.206 96.2774 251.32 94.8443C250.251 93.0345 249.678 91.1447 249.602 89.1748C249.244 85.1019 249.559 81.1661 250.546 77.3676C251.59 73.5882 253.165 69.9917 255.271 66.5779C256.203 64.9544 257.419 63.8679 258.92 63.3184C259.578 63.0427 260.215 62.9171 260.833 62.9412C261.469 62.9093 262.038 63.1674 262.538 63.7156C263.077 64.1518 263.39 64.6984 263.479 65.3555C263.585 65.9566 263.533 66.5657 263.323 67.1829C263.149 67.6876 262.977 68.1925 262.804 68.6974C262.631 69.2022 262.44 69.6695 262.23 70.099C261.411 71.761 260.694 73.4896 260.079 75.2847C259.485 77.0237 258.991 78.8292 258.601 80.7012C258.29 81.9738 258.037 83.2658 257.838 84.5768C257.715 85.851 257.741 87.1454 257.916 88.4598C257.952 88.7226 258.006 88.9294 258.08 89.0801C258.204 89.8126 258.387 90.283 258.629 90.4915C258.87 90.6999 259.357 90.7417 260.087 90.6168C261.643 90.274 262.996 89.6106 264.146 88.6266C265.35 87.8495 266.388 86.9208 267.258 85.8407C268.129 84.7605 268.915 83.6515 269.617 82.5136C270.812 80.6673 271.849 78.7352 272.727 76.7174C273.605 74.6996 274.371 72.6432 275.027 70.5484C275.621 68.8094 276.754 67.694 278.424 67.2022C279.812 66.8017 281.1 67.0568 282.291 67.9675C283.536 68.8973 284.057 70.2991 283.855 72.1728C283.771 73.1474 283.565 74.1114 283.24 75.0651C282.989 75.9819 282.644 76.8977 282.205 77.813C281.15 80.7107 280.096 83.6085 279.041 86.5063C278.006 89.348 277.073 92.2561 276.243 95.2309C275.875 96.6718 275.403 98.14 274.829 99.6354C274.254 101.131 273.69 102.598 273.135 104.037C272.544 105.214 271.603 105.862 270.311 105.982C269.674 106.014 269.115 105.821 268.632 105.405C268.149 104.988 267.789 104.488 267.55 103.904C267.349 103.396 267.194 102.935 267.085 102.522C267.051 102.071 267.046 101.63 267.069 101.199C267.058 100.13 267.078 99.0706 267.124 98.0208C267.227 96.9901 267.311 95.9219 267.377 94.8159Z" fill="#63856B"/>
<path d="M317.794 92.4763C316.576 93.2175 315.644 94.0413 314.997 94.9476C313.38 96.8818 311.975 98.9755 310.782 101.228C309.588 103.482 308.559 105.825 307.693 108.259C307.528 108.831 307.305 109.393 307.025 109.945C306.743 110.496 306.415 110.978 306.038 111.392C304.898 112.69 303.618 113.118 302.194 112.676C301.438 112.538 300.834 112.216 300.386 111.711C299.937 111.207 299.566 110.597 299.276 109.88C299.139 109.312 299.066 108.726 299.055 108.121C299.104 107.527 299.123 106.928 299.114 106.323C299.248 103.937 299.355 101.544 299.431 99.1467C299.577 96.7016 299.805 94.3016 300.114 91.9468C300.285 90.3503 300.573 88.7752 300.976 87.2215C301.381 85.6678 301.844 84.1247 302.364 82.5923C302.417 82.3006 302.523 82.0488 302.682 81.8368C302.852 81.5664 302.988 81.32 303.088 81.0972C303.878 79.7349 304.955 79.2694 306.321 79.7006C306.892 79.8656 307.369 80.2243 307.749 80.7763C308.129 81.3285 308.289 81.9307 308.231 82.5831C308.15 84.0152 308.044 85.4128 307.916 86.7759C307.845 88.1497 307.805 89.5288 307.792 90.9133C307.809 91.1573 307.784 91.4543 307.72 91.8044C307.666 92.096 307.701 92.4037 307.822 92.7274C308.134 92.6641 308.336 92.5503 308.426 92.386C308.526 92.1632 308.623 91.9698 308.713 91.8055C309.508 90.7455 310.298 89.7146 311.081 88.7131C311.876 87.6531 312.737 86.7257 313.665 85.9311C314.099 85.5285 314.529 85.155 314.952 84.8107C315.387 84.4081 315.869 84.0744 316.398 83.8098C318.135 82.8623 319.851 82.6945 321.544 83.3065C323.247 83.8601 324.497 85.0842 325.294 86.9789C325.648 88.0083 325.874 89.0747 325.974 90.1782C326.083 91.2233 326.101 92.2816 326.026 93.353C325.997 95.1564 325.904 96.9784 325.75 98.8189C325.662 100.612 325.576 102.405 325.49 104.197C325.414 105.269 325.368 106.345 325.35 107.428C325.402 108.462 325.391 109.515 325.315 110.586C325.357 111.016 325.439 111.393 325.559 111.716C325.681 112.04 325.92 112.385 326.273 112.752C327.379 113.618 327.57 114.708 326.849 116.023C326.059 117.385 324.991 118.124 323.647 118.239C322.303 118.354 321.134 117.838 320.14 116.691C319.701 116.128 319.355 115.552 319.101 114.963C318.849 114.374 318.63 113.761 318.445 113.125C317.822 111.262 317.438 109.413 317.292 107.577C317.146 105.742 317.132 103.84 317.251 101.872C317.321 100.499 317.426 99.1011 317.566 97.6797C317.705 96.2583 317.751 94.8499 317.705 93.4548C317.727 93.3381 317.719 93.2161 317.683 93.0888C317.714 92.9138 317.751 92.7096 317.794 92.4763Z" fill="#63856B"/>
<path d="M358.661 97.0463C358.979 96.5461 359.267 96.0482 359.526 95.5526C359.844 95.0524 360.165 94.5818 360.487 94.1407C361.426 92.4628 362.306 90.7597 363.124 89.0317C363.941 87.3037 364.761 85.6052 365.584 83.9362C365.729 83.5089 365.938 83.1359 366.211 82.8177C366.542 82.4949 366.846 82.204 367.124 81.9449C368.032 81.3994 368.917 81.3317 369.779 81.7414C370.696 82.0876 371.251 82.7587 371.445 83.755C371.653 84.9286 371.581 85.9156 371.226 86.7159C370.285 89.1671 369.28 91.5638 368.213 93.9057C367.141 96.1885 365.821 98.3417 364.255 100.365C363.715 101.061 363.451 101.497 363.464 101.675C363.474 101.793 363.774 102.216 364.363 102.944C365.664 104.45 367.075 105.829 368.595 107.081C370.11 108.273 371.765 109.336 373.556 110.269C373.861 110.365 374.137 110.493 374.387 110.652C374.632 110.752 374.907 110.85 375.21 110.946C376.885 111.115 377.84 111.964 378.075 113.492C378.252 114.252 378.131 115.004 377.713 115.75C377.35 116.432 376.854 116.946 376.228 117.291C375.598 117.578 374.929 117.777 374.227 117.891C373.578 117.94 372.923 117.931 372.265 117.863C369.733 117.343 367.436 116.389 365.371 115C364.495 114.413 363.615 113.767 362.731 113.061C361.904 112.351 361.052 111.673 360.172 111.027C360.294 111.85 360.416 112.674 360.539 113.497C360.661 114.32 360.785 115.173 360.912 116.056C361.061 116.461 361.183 116.897 361.278 117.366C361.373 117.834 361.496 118.271 361.646 118.676C361.912 119.845 361.622 120.7 360.773 121.241C359.996 121.955 359.109 121.993 358.111 121.356C357.303 120.882 356.689 120.215 356.267 119.356C355.777 118.382 355.372 117.343 355.05 116.237C354.729 115.132 354.436 114.024 354.173 112.914C353.548 110.94 353.012 108.958 352.563 106.97C352.11 104.923 351.716 102.872 351.381 100.816C350.974 98.5867 350.508 96.3622 349.983 94.1423C349.512 91.8587 349.132 89.5979 348.843 87.3599C348.598 85.7131 348.353 84.0665 348.11 82.4198C347.865 80.7731 347.68 79.122 347.553 77.4662C347.359 74.9235 347.107 72.3853 346.795 69.8516C346.478 67.2587 346.223 64.691 346.029 62.1482C345.967 60.5472 345.877 58.9778 345.759 57.4404C345.642 55.9029 345.613 54.3587 345.673 52.8077C345.755 52.3255 345.812 51.9049 345.844 51.5455C345.935 51.1817 346.087 50.8429 346.3 50.5292C347.204 49.1514 348.403 48.5244 349.896 48.6479C350.676 48.7664 351.352 49.0716 351.924 49.5631C352.55 49.991 352.924 50.6166 353.046 51.4399C353.192 51.7857 353.278 52.1359 353.305 52.4907C353.328 52.7865 353.354 53.1413 353.386 53.5552C353.811 56.7939 354.177 60.0372 354.484 63.2851C354.851 66.5282 355.189 69.8034 355.5 73.1104C355.916 77.0041 356.363 80.9251 356.843 84.8735C357.376 88.7582 357.851 92.6474 358.267 96.5411C358.288 96.8369 358.42 97.0052 358.661 97.0463Z" fill="#63856B"/>
<path d="M377.514 51.7122C378.419 51.4334 379.239 51.5841 379.974 52.1641C380.748 52.6702 381.179 53.4681 381.266 54.5583C381.357 55.4608 381.439 56.3352 381.513 57.181C381.644 58.0095 381.717 58.8553 381.734 59.7187C381.8 60.1329 381.855 60.5189 381.904 60.8765C382.008 61.2166 382.177 61.5676 382.412 61.9295C382.86 62.7842 382.795 63.5799 382.215 64.3167C381.58 65.0709 380.752 65.2952 379.729 64.9898C378.594 64.7191 377.804 64.0627 377.362 63.0205C376.735 61.7864 376.242 60.4804 375.88 59.1025C375.576 57.7071 375.366 56.3139 375.249 54.923C375.136 54.1512 375.301 53.4798 375.745 52.9087C376.189 52.3376 376.778 51.9388 377.514 51.7122Z" fill="#1F4C2A"/>
<path d="M427.95 88.3258C427.982 89.4141 428.019 90.3955 428.059 91.2701C428.121 92.0634 428.148 92.9127 428.139 93.8179C428.059 95.1808 427.908 96.4828 427.686 97.7239C427.434 98.9142 427.023 100.13 426.456 101.371C425.363 103.691 423.737 105.295 421.576 106.182C419.07 107.07 416.584 106.838 414.116 105.488C412.867 104.788 411.78 103.955 410.856 102.99C409.9 101.974 409.042 100.83 408.28 99.5598C406.348 96.2257 405.207 92.8299 404.858 89.3722C404.51 85.9144 404.806 82.3799 405.746 78.7682C406.09 77.7304 406.475 76.7027 406.9 75.6852C407.325 74.6677 407.974 73.7923 408.845 73.0591C409.586 72.3362 410.351 71.771 411.143 71.3633C411.985 70.925 412.887 70.5884 413.851 70.3535C413.983 70.3432 414.166 70.3022 414.399 70.2308C414.602 70.1086 414.774 69.9355 414.915 69.7116C414.428 68.8985 413.925 68.0599 413.406 67.1959C412.908 66.2506 412.374 65.3611 411.805 64.5277C410.615 62.5457 409.532 60.5686 408.556 58.5965C407.905 57.3971 407.219 56.2536 406.498 55.166C405.827 54.0479 405.156 52.9298 404.484 51.8117C403.956 50.8155 403.386 49.8092 402.776 48.7928C402.217 47.7457 401.699 46.7088 401.22 45.6821C400.896 44.9095 400.611 44.147 400.366 43.3946C400.172 42.6117 400.111 41.8184 400.181 41.0149C400.048 39.9877 400.413 39.2144 401.275 38.6947C402.197 37.9309 403.202 37.8791 404.288 38.539C404.979 38.8841 405.598 39.3411 406.147 39.9101C406.716 40.3978 407.238 40.982 407.717 41.6629C408.631 42.8418 409.485 44.0919 410.278 45.4132C411.121 46.7041 411.915 48.0254 412.657 49.3775C414.486 52.4267 416.306 55.5167 418.115 58.6474C419.896 61.7274 421.69 64.8327 423.499 67.9634C424.537 69.6914 425.573 71.4193 426.61 73.1473C427.667 74.7938 428.689 76.4963 429.675 78.2549C430.661 80.0134 431.688 81.7821 432.756 83.5609C433.792 85.2888 434.946 86.981 436.216 88.6374C436.674 89.3998 437.232 90.1011 437.893 90.7411C439.192 91.7568 439.408 92.9771 438.536 94.402C437.776 95.5521 436.604 95.8431 435.021 95.2753C434.605 95.0417 434.198 94.7676 433.802 94.4527C433.406 94.1377 433.05 93.833 432.736 93.5384C431.984 92.7459 431.217 91.9279 430.434 91.0846C429.672 90.1598 428.844 89.2402 427.95 88.3258ZM416.324 77.5823C415.705 77.8169 415.255 78.1582 414.971 78.606C414.656 79.0029 414.398 79.4355 414.196 79.9035C413.922 80.4835 413.729 81.0839 413.619 81.7044C413.477 82.2741 413.367 82.8947 413.286 83.5659C413.014 85.875 413.068 88.0923 413.445 90.2175C413.874 92.3123 414.784 94.2895 416.177 96.1493C416.451 96.6067 416.782 97.0997 417.167 97.6282C417.574 98.0753 418.036 98.212 418.553 98.0386C419.02 97.8957 419.299 97.5548 419.389 97.0155C419.5 96.395 419.551 95.8457 419.539 95.3678C419.731 93.3843 419.703 91.4976 419.457 89.7077C419.263 87.8874 418.921 86.0519 418.432 84.2013C418.157 83.0524 417.847 81.9593 417.501 80.9222C417.124 79.8344 416.732 78.721 416.324 77.5823Z" fill="#1F4C2A"/>
</svg>
